# Blender v2.79 (sub 0) OBJ File: 'scene.blend'
# www.blender.org
mtllib audience.mtl
o audience.001_Plane.012
v -4.945000 1.070945 5.454423
v -4.985416 1.065419 5.423088
v -4.970546 1.070204 5.450225
v -4.985339 1.068182 5.438756
v 4.985416 1.065419 5.423088
v 4.945000 1.070945 5.454423
v 4.985340 1.068182 5.438756
v 4.970546 1.070204 5.450225
v 2.195000 0.029055 -0.454423
v 2.264584 0.034581 -0.423088
v 2.224454 0.029796 -0.450225
v 2.249923 0.031818 -0.438756
v -2.264584 0.034581 -0.423088
v -2.195000 0.029055 -0.454423
v -2.249923 0.031818 -0.438756
v -2.224454 0.029796 -0.450225
vt 0.192181 0.273561
vt 0.189000 0.280518
vt 0.788950 0.005541
vt 0.189000 0.719482
vt 0.189426 0.722427
vt 0.192181 0.726439
vt 0.190591 0.724974
vt 0.785768 0.998500
vt 0.788950 0.994459
vt 0.787359 0.998492
vt 0.788524 0.997013
vt 0.788524 0.002987
vt 0.785768 0.001500
vt 0.787359 0.001508
vt 0.190591 0.275026
vt 0.189426 0.277573
vn -0.0000 -0.9848 0.1736
vn -0.0000 -0.9848 0.1737
usemtl black
s off
f 13/1/1 14/2/1 1/3/1
f 9/4/1 11/5/1 10/6/1
f 11/5/2 12/7/2 10/6/2
f 10/6/1 5/8/1 6/9/1
f 9/4/1 10/6/1 6/9/1
f 5/8/2 7/10/2 8/11/2
f 8/11/1 6/9/1 5/8/1
f 6/9/1 1/3/1 9/4/1
f 1/3/1 3/12/1 2/13/1
f 3/12/2 4/14/2 2/13/2
f 2/13/1 13/1/1 1/3/1
f 13/1/2 15/15/2 16/16/2
f 16/16/1 14/2/1 13/1/1
f 14/2/1 9/4/1 1/3/1
o Cylinder.000_Cylinder.016
v -4.939973 2.063998 5.415032
v -2.223001 1.036001 -0.415032
v -2.233510 0.989963 -0.392567
v -4.929475 2.010043 5.392593
v 4.939973 2.063998 5.415032
v 2.223001 1.036001 -0.415032
v 2.233510 0.989963 -0.392567
v 4.929475 2.010042 5.392593
v 2.223001 1.036001 -0.415032
v 2.198000 0.986001 -0.415032
v -2.223001 1.036001 -0.415032
v -2.198000 0.986001 -0.415032
v 4.939973 2.063998 5.415032
v 4.915003 2.013998 5.415032
v -4.939973 2.063998 5.415032
v -4.915003 2.013998 5.415032
vt 0.000000 0.000000
vt 0.000000 0.000000
vt 0.000000 0.000000
vt 0.000000 0.000000
vt 0.000000 0.000000
vt 0.000000 0.000000
vt 0.000000 0.000000
vt 0.000000 0.000000
vt 0.497374 0.448757
vt 0.668465 0.006705
vt 0.668465 0.444506
vt 0.093920 0.008456
vt 0.013948 0.991976
vt 0.093920 0.987434
vt 0.497374 0.005975
vt 0.013947 0.008024
vn 0.9064 -0.0007 0.4225
vn -0.9064 -0.0007 0.4225
vn 0.9065 0.0007 0.4223
vn -0.9065 0.0007 0.4223
vn 0.0000 0.0000 1.0000
vn 0.0000 0.0000 -1.0000
usemtl invis
s off
f 18/17/3 20/18/3 19/19/3
f 24/20/4 22/21/4 23/22/4
f 18/17/5 17/23/5 20/18/5
f 24/20/6 21/24/6 22/21/6
s 1
f 25/25/7 28/26/7 26/27/7
f 32/28/8 29/29/8 30/30/8
f 25/25/7 27/31/7 28/26/7
f 32/28/8 31/32/8 29/29/8
o audience.002_Plane.006
v -4.945000 1.070945 5.454423
v -4.985416 1.065419 5.423088
v -4.970546 1.070204 5.450225
v -4.985339 1.068182 5.438756
v 4.985416 1.065419 5.423088
v 4.945000 1.070945 5.454423
v 4.985340 1.068182 5.438756
v 4.970546 1.070204 5.450225
v 2.195000 0.029055 -0.454423
v 2.264584 0.034581 -0.423088
v 2.224454 0.029796 -0.450225
v 2.249923 0.031818 -0.438756
v -2.264584 0.034581 -0.423088
v -2.195000 0.029055 -0.454423
v -2.249923 0.031818 -0.438756
v -2.224454 0.029796 -0.450225
vt 0.788950 0.994459
vt 0.192181 0.726439
vt 0.189000 0.719482
vt 0.190591 0.724974
vt 0.189426 0.722427
vt 0.189000 0.280518
vt 0.788950 0.005541
vt 0.189426 0.277573
vt 0.192181 0.273561
vt 0.190591 0.275026
vt 0.785768 0.001500
vt 0.787359 0.001508
vt 0.788524 0.002987
vt 0.788524 0.997013
vt 0.785768 0.998500
vt 0.787359 0.998492
vn -0.0000 0.9848 -0.1736
vn 0.0000 0.9848 -0.1737
usemtl audience
s off
f 38/33/9 42/34/9 41/35/9
f 44/36/10 43/37/10 42/34/10
f 43/37/9 41/35/9 42/34/9
f 41/35/9 46/38/9 33/39/9
f 46/38/9 48/40/9 45/41/9
f 33/39/9 46/38/9 45/41/9
f 48/40/10 47/42/10 45/41/10
f 45/41/9 34/43/9 33/39/9
f 34/43/10 36/44/10 35/45/10
f 33/39/9 34/43/9 35/45/9
f 33/39/9 38/33/9 41/35/9
f 38/33/9 40/46/9 37/47/9
f 40/46/10 39/48/10 37/47/10
f 37/47/9 42/34/9 38/33/9
o controlRoomWindow
v -3.000000 4.000000 7.000000
v 3.000000 4.000000 7.000000
v -3.000000 2.000002 7.000000
v 3.000000 2.000002 7.000000
vt 0.173693 0.005059
vt 0.005059 0.510961
vt 0.005059 0.005059
vt 0.173693 0.510961
vn 0.0000 0.0000 -1.0000
usemtl controlExt
s off
f 52/49/11 49/50/11 50/51/11
f 52/49/11 51/52/11 49/50/11
