# Blender v2.79 (sub 0) OBJ File: ''
# www.blender.org
mtllib combadge1.mtl
o Delta
v 0.528563 -0.896627 -0.000000
v 0.554089 -0.872920 -0.000000
v 0.488697 -0.803113 -0.000000
v 0.445487 -0.705020 -0.000000
v 0.515437 -0.661610 -0.000000
v 0.401562 -0.608644 -0.000000
v 0.356203 -0.512719 -0.000000
v 0.468685 -0.449750 -0.000000
v 0.310928 -0.420855 -0.000000
v 0.265544 -0.333104 -0.000000
v 0.414749 -0.238293 -0.000000
v 0.221862 -0.252952 -0.000000
v 0.354543 -0.028194 -0.000000
v 0.178524 -0.179489 -0.000000
v 0.288986 0.179595 0.000000
v 0.080693 -0.041949 -0.000000
v 0.091969 -0.056549 -0.000000
v -0.000431 0.023775 0.000000
v 0.218993 0.384122 0.000000
v -0.018564 0.028309 0.000000
v -0.445341 0.532892 0.000000
v -0.053528 0.028368 0.000000
v 0.145483 0.584435 0.000000
v -0.304892 0.931202 0.000000
v -0.377260 0.732453 0.000000
v 0.069372 0.779581 0.000000
v -0.228380 1.128770 0.000000
v -0.008440 0.968603 0.000000
v -0.088078 1.153066 0.000000
v -0.156265 1.304341 0.000000
v -0.508994 0.332889 0.000000
v -0.104477 0.007187 0.000000
v -0.071099 0.023985 0.000000
v -0.568076 0.132811 0.000000
v -0.196773 -0.075866 -0.000000
v -0.130900 -0.012892 -0.000000
v -0.257618 -0.142069 -0.000000
v -0.622446 -0.066971 -0.000000
v -0.320442 -0.218125 -0.000000
v -0.671962 -0.266088 -0.000000
v -0.440005 -0.382372 -0.000000
v -0.379671 -0.296476 -0.000000
v -0.716481 -0.464171 -0.000000
v -0.555942 -0.562088 -0.000000
v -0.497920 -0.469961 -0.000000
v -0.755862 -0.660851 -0.000000
v -0.669560 -0.752346 -0.000000
v -0.613053 -0.656274 -0.000000
v -0.789964 -0.855758 -0.000000
v -0.728391 -0.854034 -0.000000
v 0.103976 -0.071902 -0.000000
v 0.559489 -0.971616 -0.000000
v 0.139891 -0.120058 -0.000000
v 0.572729 -1.004874 -0.000000
v -0.776489 -0.937920 -0.000000
v -0.811194 -0.998441 -0.000000
v 0.069006 -0.027707 -0.000000
v 0.055731 -0.013335 -0.000000
v 0.040849 0.000170 0.000000
v 0.024343 0.011813 0.000000
v -0.024098 0.020251 -0.200000
v -0.046513 0.020251 -0.200000
v 0.228017 0.387321 -0.200000
v 0.093177 -0.073833 -0.200000
v 0.084303 -0.062531 -0.200000
v 0.363711 -0.025435 -0.200000
v 0.073829 -0.049039 -0.200000
v 0.298081 0.182585 -0.200000
v 0.563541 -0.871388 -0.200000
v 0.593236 -1.081600 -0.200000
v 0.558564 -0.994504 -0.200000
v 0.478000 -0.447535 -0.200000
v 0.524823 -0.659717 -0.200000
v 0.392847 -0.612690 -0.200000
v 0.479886 -0.806932 -0.200000
v 0.423990 -0.235791 -0.200000
v 0.213305 -0.257811 -0.200000
v 0.302352 -0.425182 -0.200000
v -0.003469 0.015236 -0.200000
v 0.130610 -0.123982 -0.200000
v 0.170857 -0.185866 -0.200000
v 0.078259 0.783142 -0.200000
v 0.154437 0.587822 -0.200000
v -0.386288 0.735637 -0.200000
v -0.078219 1.154437 -0.200000
v 0.000401 0.972329 -0.200000
v -0.237272 1.132318 -0.200000
v -0.313854 0.934569 -0.200000
v 0.032541 -0.005721 -0.200000
v 0.047975 -0.019605 -0.200000
v -0.156684 1.328516 -0.200000
v -0.518147 0.335696 -0.200000
v -0.454433 0.535890 -0.200000
v -0.070739 0.014209 -0.200000
v -0.096803 0.001093 -0.200000
v -0.124731 -0.020124 -0.200000
v -0.631711 -0.064558 -0.200000
v -0.577286 0.135425 -0.200000
v -0.250347 -0.148407 -0.200000
v -0.311569 -0.222503 -0.200000
v -0.725845 -0.462181 -0.200000
v -0.681278 -0.263882 -0.200000
v -0.489765 -0.475225 -0.200000
v -0.371830 -0.302192 -0.200000
v -0.431204 -0.386694 -0.200000
v -0.799415 -0.854227 -0.200000
v -0.765272 -0.659085 -0.200000
v -0.661294 -0.757175 -0.200000
v -0.604736 -0.661247 -0.200000
v -0.717330 -0.854004 -0.200000
v -0.772919 -0.950953 -0.200000
v -0.828133 -1.047239 -0.200000
v 0.015403 0.006235 -0.200000
v 0.061728 -0.034388 -0.200000
v 0.257341 -0.338142 -0.200000
v 0.437105 -0.709807 -0.200000
v 0.520577 -0.902389 -0.200000
v -0.188092 -0.080686 -0.200000
v -0.547584 -0.567003 -0.200000
v 0.347725 -0.517256 -0.200000
v -0.046513 0.020251 -0.009573
v -0.070739 0.014209 -0.009573
v 0.563541 -0.871388 -0.009573
v 0.593236 -1.081600 -0.009573
v 0.478000 -0.447535 -0.009573
v 0.524823 -0.659717 -0.009573
v 0.423990 -0.235791 -0.009573
v 0.061728 -0.034388 -0.009573
v 0.047975 -0.019605 -0.009573
v 0.015403 0.006235 -0.009573
v -0.003469 0.015236 -0.009573
v -0.156684 1.328516 -0.009573
v -0.078219 1.154437 -0.009573
v -0.237272 1.132318 -0.009573
v -0.313854 0.934569 -0.009573
v -0.386288 0.735637 -0.009573
v -0.124731 -0.020124 -0.009573
v -0.188092 -0.080686 -0.009573
v -0.311569 -0.222503 -0.009573
v -0.371830 -0.302192 -0.009573
v -0.717330 -0.854004 -0.009573
v -0.772919 -0.950953 -0.009573
v -0.828133 -1.047239 -0.009573
v -0.799415 -0.854227 -0.009573
v -0.489765 -0.475225 -0.009573
v -0.547584 -0.567003 -0.009573
v -0.096803 0.001093 -0.009573
v 0.073829 -0.049039 -0.009573
v 0.032541 -0.005721 -0.009573
v 0.558564 -0.994504 -0.009573
v -0.250347 -0.148407 -0.009573
v -0.661294 -0.757175 -0.009573
v -0.604736 -0.661247 -0.009573
v -0.431204 -0.386694 -0.009573
v 0.130610 -0.123982 -0.009573
v 0.093177 -0.073833 -0.009573
v -0.024098 0.020251 -0.009573
v 0.228017 0.387321 -0.009573
v 0.298081 0.182585 -0.009573
v 0.363711 -0.025435 -0.009573
v 0.520577 -0.902389 -0.009573
v 0.479886 -0.806932 -0.009573
v 0.437105 -0.709807 -0.009573
v -0.765272 -0.659085 -0.009573
v 0.392847 -0.612690 -0.009573
v -0.725845 -0.462181 -0.009573
v 0.347725 -0.517256 -0.009573
v -0.681278 -0.263882 -0.009573
v 0.302352 -0.425182 -0.009573
v -0.631711 -0.064558 -0.009573
v 0.257341 -0.338142 -0.009573
v -0.577286 0.135424 -0.009573
v 0.213305 -0.257811 -0.009573
v -0.518147 0.335696 -0.009573
v 0.170857 -0.185866 -0.009573
v -0.454433 0.535890 -0.009573
v 0.084303 -0.062531 -0.009573
v 0.000401 0.972329 -0.009573
v 0.078259 0.783142 -0.009573
v 0.154437 0.587822 -0.009573
vt 0.901654 0.902161
vt 0.894364 0.909157
vt 0.873009 0.887421
vt 0.838155 0.870610
vt 0.821169 0.897447
vt 0.800936 0.852245
vt 0.761988 0.832704
vt 0.735086 0.879789
vt 0.723321 0.812541
vt 0.685155 0.791812
vt 0.643280 0.858700
vt 0.649007 0.771037
vt 0.547002 0.840735
vt 0.614164 0.750114
vt 0.452479 0.834735
vt 0.542546 0.699899
vt 0.550567 0.705420
vt 0.497853 0.658738
vt 0.366219 0.839621
vt 0.491734 0.650267
vt 0.170364 0.671248
vt 0.482453 0.633624
vt 0.283344 0.849545
vt 0.097432 0.798886
vt 0.131452 0.736824
vt 0.210765 0.866238
vt 0.072477 0.854372
vt 0.146700 0.880800
vt 0.091933 0.890290
vt 0.059653 0.889632
vt 0.208660 0.597795
vt 0.468075 0.607361
vt 0.477522 0.625736
vt 0.243818 0.519927
vt 0.446016 0.543578
vt 0.461499 0.590540
vt 0.434662 0.499612
vt 0.274532 0.438864
vt 0.425438 0.453261
vt 0.301299 0.357391
vt 0.412496 0.362561
vt 0.418496 0.408830
vt 0.325254 0.277850
vt 0.402206 0.271969
vt 0.407361 0.317521
vt 0.346779 0.203209
vt 0.390589 0.185883
vt 0.396807 0.227818
vt 0.365180 0.139818
vt 0.383885 0.147198
vt 0.558716 0.711547
vt 0.920913 0.912768
vt 0.584241 0.730299
vt 0.928421 0.916775
vt 0.378577 0.121244
vt 0.375672 0.108634
vt 0.534256 0.694060
vt 0.525373 0.687299
vt 0.516458 0.679673
vt 0.508024 0.671232
vt 0.796099 0.427867
vt 0.803159 0.425618
vt 0.753521 0.568789
vt 0.749717 0.410000
vt 0.753646 0.412670
vt 0.669359 0.452394
vt 0.758299 0.415869
vt 0.710907 0.511331
vt 0.521523 0.205982
vt 0.491075 0.142748
vt 0.510736 0.166703
vt 0.591001 0.330906
vt 0.554960 0.268771
vt 0.601250 0.270339
vt 0.554342 0.217890
vt 0.629262 0.392183
vt 0.693416 0.364105
vt 0.648571 0.320321
vt 0.789097 0.428358
vt 0.732894 0.397961
vt 0.714006 0.382507
vt 0.840414 0.678440
vt 0.796818 0.624561
vt 0.981973 0.616859
vt 0.926962 0.779691
vt 0.883923 0.730219
vt 0.974842 0.756763
vt 0.979120 0.686789
vt 0.775652 0.425370
vt 0.769397 0.422545
vt 0.969146 0.826649
vt 0.983373 0.477651
vt 0.983393 0.547103
vt 0.810184 0.421283
vt 0.817078 0.414537
vt 0.823745 0.405051
vt 0.978979 0.340179
vt 0.981904 0.408633
vt 0.850440 0.352038
vt 0.862288 0.322555
vt 0.968728 0.205487
vt 0.974589 0.272421
vt 0.893057 0.225069
vt 0.873273 0.291407
vt 0.883495 0.258831
vt 0.952560 0.074614
vt 0.961388 0.139508
vt 0.918793 0.119045
vt 0.910604 0.154936
vt 0.926727 0.082922
vt 0.934508 0.046806
vt 0.942237 0.010936
vt 0.782250 0.427416
vt 0.763581 0.419269
vt 0.671484 0.343221
vt 0.577564 0.244190
vt 0.531945 0.191906
vt 0.837626 0.379616
vt 0.902059 0.190357
vt 0.625040 0.295872
vt 0.490099 0.632889
vt 0.483038 0.620677
vt 0.564797 0.565150
vt 0.571311 0.574488
vt 0.893712 0.913250
vt 0.936538 0.921132
vt 0.993326 0.915174
vt 0.916936 0.992108
vt 0.733881 0.885331
vt 0.820272 0.902442
vt 0.810318 0.987037
vt 0.716145 0.966769
vt 0.642063 0.864526
vt 0.624889 0.944962
vt 0.539037 0.687890
vt 0.529985 0.680686
vt 0.602786 0.612800
vt 0.609354 0.619741
vt 0.512037 0.663691
vt 0.503962 0.654114
vt 0.583552 0.590579
vt 0.589776 0.598130
vt 0.056227 0.891966
vt 0.092854 0.893497
vt 0.087073 0.949199
vt 0.022605 0.931018
vt 0.069454 0.853181
vt 0.004067 0.846821
vt 0.093668 0.797012
vt 0.030940 0.769871
vt 0.127352 0.734497
vt 0.066287 0.701867
vt 0.468266 0.588061
vt 0.453129 0.542893
vt 0.535160 0.509049
vt 0.549679 0.540816
vt 0.431849 0.453088
vt 0.424558 0.407949
vt 0.506566 0.393811
vt 0.514165 0.434864
vt 0.388279 0.148031
vt 0.381264 0.118242
vt 0.427450 0.070379
vt 0.457187 0.114731
vt 0.375668 0.102954
vt 0.361400 0.138648
vt 0.308860 0.101741
vt 0.367633 0.048140
vt 0.413131 0.316859
vt 0.407801 0.271398
vt 0.488824 0.259968
vt 0.494484 0.306090
vt 0.475544 0.605960
vt 0.557650 0.554152
vt 0.547478 0.694247
vt 0.615675 0.626200
vt 0.520823 0.672593
vt 0.596207 0.605554
vt 0.927549 0.912276
vt 0.976155 0.879995
vt 0.441117 0.498103
vt 0.523512 0.473493
vt 0.395382 0.185075
vt 0.472909 0.163890
vt 0.402119 0.227094
vt 0.482236 0.212553
vt 0.418487 0.362437
vt 0.500184 0.350766
vt 0.587413 0.723898
vt 0.560757 0.704350
vt 0.626406 0.636827
vt 0.646318 0.655532
vt 0.496497 0.644074
vt 0.577463 0.582796
vt 0.366658 0.844943
vt 0.452450 0.840366
vt 0.450139 0.916604
vt 0.370699 0.916739
vt 0.546257 0.846666
vt 0.535176 0.926404
vt 0.904098 0.898947
vt 0.948084 0.850395
vt 0.875082 0.883322
vt 0.914684 0.825221
vt 0.840736 0.866188
vt 0.878478 0.802400
vt 0.342103 0.201805
vt 0.274136 0.174713
vt 0.803377 0.847387
vt 0.840919 0.780570
vt 0.320083 0.276293
vt 0.247240 0.252348
vt 0.764730 0.827745
vt 0.803193 0.759195
vt 0.295961 0.355698
vt 0.221965 0.331667
vt 0.726083 0.807383
vt 0.766355 0.738023
vt 0.269194 0.436974
vt 0.195874 0.411121
vt 0.688358 0.786663
vt 0.731406 0.716987
vt 0.238640 0.517782
vt 0.167569 0.489106
vt 0.652260 0.765568
vt 0.699223 0.696090
vt 0.203767 0.595426
vt 0.136345 0.564025
vt 0.618335 0.744798
vt 0.670676 0.675510
vt 0.165898 0.668764
vt 0.102311 0.634912
vt 0.554843 0.699740
vt 0.621461 0.631971
vt 0.147475 0.884775
vt 0.154556 0.945454
vt 0.211761 0.870696
vt 0.222982 0.934326
vt 0.284198 0.854518
vt 0.293914 0.923002
vn -0.0000 -0.0000 1.0000
vn 0.0000 0.0000 -1.0000
vn 0.0984 -0.9240 0.3696
vn 0.3276 -0.8633 0.3839
vn 0.2367 -0.6378 -0.7329
vn 0.0826 -0.6724 -0.7356
vn 0.9127 0.1479 0.3810
vn 0.2211 -0.8324 0.5081
vn 0.2163 -0.8148 -0.5379
vn 0.7024 0.1137 -0.7026
vn 0.8994 0.2139 0.3813
vn 0.9062 0.1828 0.3812
vn 0.6971 0.1406 -0.7030
vn 0.6914 0.1646 -0.7035
vn 0.8923 0.2416 0.3815
vn 0.6857 0.1856 -0.7038
vn -0.6921 -0.6058 0.3926
vn -0.6441 -0.6552 0.3948
vn -0.4887 -0.4967 -0.7172
vn -0.5266 -0.4617 -0.7138
vn -0.4593 -0.8021 0.3817
vn -0.3114 -0.8715 0.3787
vn -0.2286 -0.6429 -0.7311
vn -0.3459 -0.5943 -0.7260
vn -0.0151 0.8945 0.4468
vn 0.8457 0.3727 0.3821
vn 0.6485 0.2861 -0.7054
vn -0.0141 0.8366 -0.5476
vn -0.8584 0.3425 0.3818
vn -0.6589 0.2629 -0.7048
vn -0.8652 0.3250 0.3818
vn -0.6641 0.2494 -0.7048
vn -0.8716 0.3073 0.3818
vn -0.6690 0.2359 -0.7048
vn 0.5987 -0.7018 0.3860
vn 0.6578 -0.6473 0.3852
vn 0.4997 -0.4898 -0.7144
vn 0.4505 -0.5277 -0.7201
vn 0.7229 -0.5725 0.3869
vn 0.7450 -0.5431 0.3873
vn 0.5681 -0.4142 -0.7111
vn 0.5510 -0.4352 -0.7120
vn 0.8004 -0.4613 0.3828
vn 0.8014 -0.4595 0.3829
vn 0.6134 -0.3517 -0.7071
vn 0.6124 -0.3527 -0.7075
vn -0.2854 -0.8219 0.4930
vn -0.9124 0.1477 0.3816
vn -0.7009 0.1134 -0.7042
vn -0.2761 -0.7956 -0.5392
vn 0.7747 -0.5001 0.3869
vn 0.7845 -0.4850 0.3864
vn 0.5998 -0.3708 -0.7090
vn 0.5919 -0.3822 -0.7096
vn 0.4845 -0.7876 0.3808
vn 0.3628 -0.5813 -0.7283
vn -0.7196 -0.5751 0.3892
vn -0.5492 -0.4399 -0.7106
vn -0.5699 -0.7217 0.3930
vn -0.4306 -0.5426 -0.7212
vn -0.8585 -0.3462 0.3783
vn -0.6541 -0.2650 -0.7085
vn 0.6952 -0.6059 0.3867
vn 0.5285 -0.4606 -0.7131
vn 0.7975 -0.4657 0.3837
vn 0.6098 -0.3562 -0.7080
vn 0.7920 -0.4735 0.3854
vn 0.6057 -0.3622 -0.7085
vn 0.7616 -0.5197 0.3871
vn 0.5815 -0.3967 -0.7103
vn -0.7539 -0.5271 0.3923
vn -0.7314 -0.5609 0.3878
vn -0.5593 -0.4281 -0.7099
vn -0.5737 -0.4005 -0.7145
vn -0.1003 -0.9255 0.3653
vn -0.0809 -0.6733 -0.7349
vn 0.8711 0.3089 0.3818
vn 0.8781 0.2887 0.3817
vn 0.6743 0.2217 -0.7044
vn 0.6688 0.2371 -0.7046
vn 0.8851 0.2664 0.3816
vn 0.6799 0.2046 -0.7041
vn -0.8517 -0.3569 0.3836
vn -0.6509 -0.2729 -0.7084
vn -0.8472 -0.3672 0.3839
vn -0.6476 -0.2807 -0.7085
vn -0.8426 -0.3775 0.3840
vn -0.6440 -0.2885 -0.7085
vn -0.9085 0.1704 0.3817
vn -0.6977 0.1307 -0.7044
vn -0.8374 -0.3888 0.3841
vn -0.6399 -0.2971 -0.7087
vn -0.9041 0.1921 0.3817
vn -0.6942 0.1475 -0.7045
vn -0.8315 -0.4013 0.3842
vn -0.6352 -0.3066 -0.7089
vn -0.8994 0.2129 0.3817
vn -0.6905 0.1634 -0.7046
vn -0.8241 -0.4161 0.3843
vn -0.6292 -0.3177 -0.7093
vn -0.8944 0.2329 0.3818
vn -0.6867 0.1788 -0.7046
vn -0.8144 -0.4333 0.3859
vn -0.6217 -0.3311 -0.7098
vn -0.8892 0.2522 0.3818
vn -0.6825 0.1936 -0.7047
vn -0.8008 -0.4553 0.3891
vn -0.6115 -0.3478 -0.7107
vn -0.8836 0.2710 0.3818
vn -0.6783 0.2079 -0.7048
vn -0.7823 -0.4842 0.3918
vn -0.5968 -0.3699 -0.7120
vn -0.8778 0.2894 0.3818
vn -0.6737 0.2221 -0.7048
vn -0.7274 -0.5673 0.3861
vn -0.5577 -0.4356 -0.7065
vn 0.8514 0.3590 0.3823
vn 0.6533 0.2754 -0.7052
vn 0.8578 0.3438 0.3820
vn 0.6583 0.2638 -0.7050
vn 0.8644 0.3271 0.3818
vn 0.6634 0.2511 -0.7048
vn -0.2991 -0.2275 0.9267
vn -0.2995 -0.2333 0.9251
vn -0.2923 -0.2338 0.9273
vn -0.2780 -0.2431 0.9293
vn -0.2573 -0.2595 0.9308
vn -0.2294 -0.2831 0.9312
vn -0.1921 -0.3153 0.9293
vn -0.1260 -0.3511 0.9278
vn -0.0546 -0.3727 0.9263
vn 0.0560 -0.3638 0.9298
vn 0.1218 -0.3438 0.9311
vn 0.2002 -0.3115 0.9289
vn 0.2417 -0.2833 0.9281
vn 0.2693 -0.2620 0.9267
vn 0.2830 -0.2467 0.9268
vn 0.2952 -0.2324 0.9267
vn 0.3038 -0.2214 0.9267
vn 0.3113 -0.2118 0.9264
vn 0.3169 -0.2045 0.9261
vn 0.3215 -0.1987 0.9258
vn 0.3254 -0.1945 0.9253
vn 0.3293 -0.1922 0.9244
vn 0.3313 -0.1906 0.9241
vn 0.3318 -0.1903 0.9240
vn -0.0551 -0.1581 0.9859
vn -0.3804 0.0616 0.9228
vn -0.3786 0.0710 0.9228
vn -0.3767 0.0800 0.9229
vn -0.3746 0.0887 0.9229
vn -0.3725 0.0970 0.9229
vn -0.3703 0.1050 0.9229
vn -0.3679 0.1129 0.9230
vn -0.3655 0.1205 0.9230
vn -0.3629 0.1279 0.9230
vn -0.3602 0.1353 0.9230
vn -0.3574 0.1426 0.9230
vn -0.0047 0.3082 0.9513
vn 0.3515 0.1555 0.9232
vn 0.3539 0.1492 0.9233
vn 0.3569 0.1430 0.9231
vn 0.3598 0.1362 0.9230
vn 0.3628 0.1286 0.9229
vn 0.3659 0.1203 0.9228
vn 0.3691 0.1111 0.9227
vn 0.3723 0.1008 0.9226
vn 0.3755 0.0893 0.9225
vn 0.3788 0.0764 0.9223
vn 0.3818 0.0619 0.9222
vn 0.0228 -0.1111 0.9935
vn -0.3538 -0.1450 0.9240
vn -0.3512 -0.1475 0.9246
vn -0.3493 -0.1514 0.9247
vn -0.3472 -0.1557 0.9248
vn -0.3450 -0.1602 0.9248
vn -0.3423 -0.1653 0.9249
vn -0.3391 -0.1712 0.9250
vn -0.3338 -0.1776 0.9258
vn -0.3253 -0.1848 0.9274
vn -0.3150 -0.1958 0.9287
vn -0.3034 -0.2101 0.9294
usemtl Silver
s off
f 1/1/1 2/2/1 3/3/1
f 4/4/1 5/5/1 6/6/1
f 7/7/1 8/8/1 9/9/1
f 10/10/1 11/11/1 12/12/1
f 12/12/1 13/13/1 14/14/1
f 15/15/1 16/16/1 17/17/1
f 18/18/1 19/19/1 20/20/1
f 21/21/1 22/22/1 23/23/1
f 24/24/1 25/25/1 26/26/1
f 27/27/1 24/24/1 28/28/1
f 29/29/1 30/30/1 27/27/1
f 31/31/1 32/32/1 33/33/1
f 34/34/1 35/35/1 36/36/1
f 37/37/1 38/38/1 39/39/1
f 40/40/1 41/41/1 42/42/1
f 43/43/1 44/44/1 45/45/1
f 46/46/1 47/47/1 48/48/1
f 47/47/1 49/49/1 50/50/1
f 51/51/1 13/13/1 17/17/1
f 52/52/1 2/2/1 1/1/1
f 9/9/1 11/11/1 10/10/1
f 3/3/1 5/5/1 4/4/1
f 6/6/1 8/8/1 7/7/1
f 13/13/1 53/53/1 14/14/1
f 21/21/1 33/33/1 22/22/1
f 34/34/1 38/38/1 37/37/1
f 38/38/1 42/42/1 39/39/1
f 38/38/1 40/40/1 42/42/1
f 11/11/1 13/13/1 12/12/1
f 40/40/1 45/45/1 41/41/1
f 8/8/1 11/11/1 9/9/1
f 40/40/1 43/43/1 45/45/1
f 5/5/1 8/8/1 6/6/1
f 43/43/1 48/48/1 44/44/1
f 2/2/1 5/5/1 3/3/1
f 43/43/1 46/46/1 48/48/1
f 52/52/1 54/54/1 2/2/1
f 46/46/1 49/49/1 47/47/1
f 49/49/1 55/55/1 50/50/1
f 49/49/1 56/56/1 55/55/1
f 53/53/1 13/13/1 51/51/1
f 13/13/1 15/15/1 17/17/1
f 16/16/1 15/15/1 57/57/1
f 57/57/1 15/15/1 58/58/1
f 15/15/1 59/59/1 58/58/1
f 59/59/1 15/15/1 60/60/1
f 25/25/1 21/21/1 23/23/1
f 60/60/1 15/15/1 18/18/1
f 23/23/1 26/26/1 25/25/1
f 15/15/1 19/19/1 18/18/1
f 26/26/1 28/28/1 24/24/1
f 22/22/1 20/20/1 19/19/1
f 28/28/1 29/29/1 27/27/1
f 19/19/1 23/23/1 22/22/1
f 21/21/1 31/31/1 33/33/1
f 32/32/1 31/31/1 36/36/1
f 31/31/1 34/34/1 36/36/1
f 34/34/1 37/37/1 35/35/1
f 61/61/2 62/62/2 63/63/2
f 64/64/2 65/65/2 66/66/2
f 65/65/2 67/67/2 68/68/2
f 69/69/2 70/70/2 71/71/2
f 72/72/2 73/73/2 74/74/2
f 73/73/2 69/69/2 75/75/2
f 66/66/2 76/76/2 77/77/2
f 76/76/2 72/72/2 78/78/2
f 63/63/2 68/68/2 79/79/2
f 68/68/2 66/66/2 65/65/2
f 80/80/2 66/66/2 81/81/2
f 82/82/2 83/83/2 84/84/2
f 83/83/2 63/63/2 62/62/2
f 85/85/2 86/86/2 87/87/2
f 86/86/2 82/82/2 88/88/2
f 89/89/2 68/68/2 90/90/2
f 87/87/2 91/91/2 85/85/2
f 84/84/2 88/88/2 82/82/2
f 88/88/2 87/87/2 86/86/2
f 92/92/2 93/93/2 94/94/2
f 93/93/2 84/84/2 83/83/2
f 92/92/2 95/95/2 96/96/2
f 97/97/2 98/98/2 99/99/2
f 98/98/2 92/92/2 96/96/2
f 97/97/2 99/99/2 100/100/2
f 101/101/2 102/102/2 103/103/2
f 102/102/2 97/97/2 104/104/2
f 103/103/2 102/102/2 105/105/2
f 106/106/2 107/107/2 108/108/2
f 107/107/2 101/101/2 109/109/2
f 106/106/2 108/108/2 110/110/2
f 111/111/2 112/112/2 106/106/2
f 110/110/2 111/111/2 106/106/2
f 95/95/2 92/92/2 94/94/2
f 68/68/2 89/89/2 113/113/2
f 68/68/2 67/67/2 114/114/2
f 66/66/2 80/80/2 64/64/2
f 76/76/2 78/78/2 115/115/2
f 73/73/2 75/75/2 116/116/2
f 69/69/2 71/71/2 117/117/2
f 69/69/2 117/117/2 75/75/2
f 68/68/2 114/114/2 90/90/2
f 76/76/2 115/115/2 77/77/2
f 99/99/2 98/98/2 118/118/2
f 118/118/2 98/98/2 96/96/2
f 108/108/2 107/107/2 109/109/2
f 109/109/2 101/101/2 119/119/2
f 73/73/2 116/116/2 74/74/2
f 119/119/2 101/101/2 103/103/2
f 72/72/2 74/74/2 120/120/2
f 105/105/2 102/102/2 104/104/2
f 72/72/2 120/120/2 78/78/2
f 104/104/2 97/97/2 100/100/2
f 66/66/2 77/77/2 81/81/2
f 68/68/2 113/113/2 79/79/2
f 94/94/2 93/93/2 62/62/2
f 62/62/2 93/93/2 83/83/2
f 63/63/2 79/79/2 61/61/2
s 1
f 121/121/3 122/122/4 94/123/5 62/124/6
f 123/125/7 124/126/8 70/127/9 69/128/10
f 125/129/11 126/130/12 73/131/13 72/132/14
f 127/133/15 125/129/11 72/132/14 76/134/16
f 128/135/17 129/136/18 90/137/19 114/138/20
f 130/139/21 131/140/22 79/141/23 113/142/24
f 132/143/25 133/144/26 85/145/27 91/146/28
f 134/147/29 132/143/25 91/146/28 87/148/30
f 135/149/31 134/147/29 87/148/30 88/150/32
f 136/151/33 135/149/31 88/150/32 84/152/34
f 137/153/35 138/154/36 118/155/37 96/156/38
f 139/157/39 140/158/40 104/159/41 100/160/42
f 141/161/43 142/162/44 111/163/45 110/164/46
f 143/165/47 144/166/48 106/167/49 112/168/50
f 142/162/44 143/165/47 112/168/50 111/163/45
f 145/169/51 146/170/52 119/171/53 103/172/54
f 147/173/55 137/153/35 96/156/38 95/174/56
f 148/175/57 128/135/17 114/138/20 67/176/58
f 149/177/59 130/139/21 113/142/24 89/178/60
f 124/126/8 150/179/61 71/180/62 70/127/9
f 129/136/18 149/177/59 89/178/60 90/137/19
f 151/181/63 139/157/39 100/160/42 99/182/64
f 152/183/65 141/161/43 110/164/46 108/184/66
f 138/154/36 151/181/63 99/182/64 118/155/37
f 153/185/67 152/183/65 108/184/66 109/186/68
f 146/170/52 153/185/67 109/186/68 119/171/53
f 126/130/12 123/125/7 69/128/10 73/131/13
f 154/187/69 145/169/51 103/172/54 105/188/70
f 140/158/40 154/187/69 105/188/70 104/159/41
f 155/189/71 156/190/72 64/191/73 80/192/74
f 131/140/22 157/193/75 61/194/76 79/141/23
f 122/122/4 147/173/55 95/174/56 94/123/5
f 157/193/75 121/121/3 62/124/6 61/194/76
f 158/195/77 159/196/78 68/197/79 63/198/80
f 159/196/78 160/199/81 66/200/82 68/197/79
f 160/199/81 127/133/15 76/134/16 66/200/82
f 150/179/61 161/201/83 117/202/84 71/180/62
f 161/201/83 162/203/85 75/204/86 117/202/84
f 162/203/85 163/205/87 116/206/88 75/204/86
f 144/166/48 164/207/89 107/208/90 106/167/49
f 163/205/87 165/209/91 74/210/92 116/206/88
f 164/207/89 166/211/93 101/212/94 107/208/90
f 165/209/91 167/213/95 120/214/96 74/210/92
f 166/211/93 168/215/97 102/216/98 101/212/94
f 167/213/95 169/217/99 78/218/100 120/214/96
f 168/215/97 170/219/101 97/220/102 102/216/98
f 169/217/99 171/221/103 115/222/104 78/218/100
f 170/219/101 172/223/105 98/224/106 97/220/102
f 171/221/103 173/225/107 77/226/108 115/222/104
f 172/223/105 174/227/109 92/228/110 98/224/106
f 173/225/107 175/229/111 81/230/112 77/226/108
f 174/227/109 176/231/113 93/232/114 92/228/110
f 175/229/111 155/189/71 80/192/74 81/230/112
f 176/231/113 136/151/33 84/152/34 93/232/114
f 177/233/115 148/175/57 67/176/58 65/234/116
f 133/144/26 178/235/117 86/236/118 85/145/27
f 178/235/117 179/237/119 82/238/120 86/236/118
f 179/237/119 180/239/121 83/240/122 82/238/120
f 180/239/121 158/195/77 63/198/80 83/240/122
f 51/51/123 17/17/124 177/233/115 156/190/72
f 17/17/124 16/16/125 148/175/57 177/233/115
f 16/16/125 57/57/126 128/135/17 148/175/57
f 57/57/126 58/58/127 129/136/18 128/135/17
f 58/58/127 59/59/128 149/177/59 129/136/18
f 59/59/128 60/60/129 130/139/21 149/177/59
f 60/60/129 18/18/130 131/140/22 130/139/21
f 18/18/130 20/20/131 157/193/75 131/140/22
f 20/20/131 22/22/132 121/121/3 157/193/75
f 22/22/132 33/33/133 122/122/4 121/121/3
f 33/33/133 32/32/134 147/173/55 122/122/4
f 32/32/134 36/36/135 137/153/35 147/173/55
f 36/36/135 35/35/136 138/154/36 137/153/35
f 35/35/136 37/37/137 151/181/63 138/154/36
f 37/37/137 39/39/138 139/157/39 151/181/63
f 39/39/138 42/42/139 140/158/40 139/157/39
f 42/42/139 41/41/140 154/187/69 140/158/40
f 41/41/140 45/45/141 145/169/51 154/187/69
f 45/45/141 44/44/142 146/170/52 145/169/51
f 44/44/142 48/48/143 153/185/67 146/170/52
f 48/48/143 47/47/144 152/183/65 153/185/67
f 47/47/144 50/50/145 141/161/43 152/183/65
f 50/50/145 55/55/146 142/162/44 141/161/43
f 55/55/146 56/56/147 143/165/47 142/162/44
f 56/56/147 49/49/148 144/166/48 143/165/47
f 49/49/148 46/46/149 164/207/89 144/166/48
f 46/46/149 43/43/150 166/211/93 164/207/89
f 43/43/150 40/40/151 168/215/97 166/211/93
f 40/40/151 38/38/152 170/219/101 168/215/97
f 38/38/152 34/34/153 172/223/105 170/219/101
f 34/34/153 31/31/154 174/227/109 172/223/105
f 31/31/154 21/21/155 176/231/113 174/227/109
f 21/21/155 25/25/156 136/151/33 176/231/113
f 25/25/156 24/24/157 135/149/31 136/151/33
f 24/24/157 27/27/158 134/147/29 135/149/31
f 27/27/158 30/30/159 132/143/25 134/147/29
f 30/30/159 29/29/160 133/144/26 132/143/25
f 29/29/160 28/28/161 178/235/117 133/144/26
f 28/28/161 26/26/162 179/237/119 178/235/117
f 26/26/162 23/23/163 180/239/121 179/237/119
f 23/23/163 19/19/164 158/195/77 180/239/121
f 19/19/164 15/15/165 159/196/78 158/195/77
f 15/15/165 13/13/166 160/199/81 159/196/78
f 13/13/166 11/11/167 127/133/15 160/199/81
f 11/11/167 8/8/168 125/129/11 127/133/15
f 8/8/168 5/5/169 126/130/12 125/129/11
f 5/5/169 2/2/170 123/125/7 126/130/12
f 2/2/170 54/54/171 124/126/8 123/125/7
f 54/54/171 52/52/172 150/179/61 124/126/8
f 52/52/172 1/1/173 161/201/83 150/179/61
f 1/1/173 3/3/174 162/203/85 161/201/83
f 3/3/174 4/4/175 163/205/87 162/203/85
f 4/4/175 6/6/176 165/209/91 163/205/87
f 6/6/176 7/7/177 167/213/95 165/209/91
f 7/7/177 9/9/178 169/217/99 167/213/95
f 9/9/178 10/10/179 171/221/103 169/217/99
f 10/10/179 12/12/180 173/225/107 171/221/103
f 12/12/180 14/14/181 175/229/111 173/225/107
f 14/14/181 53/53/182 155/189/71 175/229/111
f 53/53/182 51/51/123 156/190/72 155/189/71
f 156/190/72 177/233/115 65/234/116 64/191/73
